<svg width="280" height="400" xmlns="http://www.w3.org/2000/svg">

 <g>
  <title>Layer 1</title>
  <path id="svg_1" fill="#e82127" d="m238.077,338.483l0,21.912l7.027,0l0,-14.589l25.575,0l0,14.589l7.022,0l0,-21.874l-39.624,-0.038m6.244,-7.088l27.02,0c3.753,-0.746 6.544,-4.058 7.331,-7.262l-41.681,0c0.779,3.205 3.611,6.516 7.33,7.262m-27.526,29.014c3.543,-1.502 5.449,-4.1 6.179,-7.14l-31.517,0l0.02,-29.118l-7.065,0.02l0,36.238l32.383,0m-84.921,-29.112l24.954,0c3.762,-1.093 6.921,-3.959 7.691,-7.136l-39.64,0l0,21.415l32.444,0l0,7.515l-25.449,0.02c-3.988,1.112 -7.37,3.79 -9.057,7.327l2.062,-0.038l39.415,0l0,-21.944l-32.42,0l0,-7.159m-61.603,0.069l27.011,0c3.758,-0.749 6.551,-4.058 7.334,-7.265l-41.679,0c0.778,3.207 3.612,6.516 7.334,7.265m0,14.322l27.011,0c3.758,-0.741 6.551,-4.053 7.334,-7.262l-41.679,0c0.778,3.21 3.612,6.521 7.334,7.262m0,14.717l27.011,0c3.758,-0.747 6.551,-4.058 7.334,-7.263l-41.679,0c0.778,3.206 3.612,6.516 7.334,7.263m-70.271,-36.216c0.812,3.167 3.554,6.404 7.316,7.215l11.37,0l0.58,0.229l0,28.691l7.1,0l0,-28.691l0.645,-0.229l11.38,0c3.804,-0.98 6.487,-4.048 7.285,-7.215l0,-0.07l-45.676,0l0,0.07"/>
  <g id="svg_2" fill="#e82127">
   <path id="svg_3" d="m139.35,252.502l35.476,-199.519c33.815,0 44.481,3.708 46.021,18.843c0,0 22.684,-8.458 34.125,-25.636c-44.646,-20.688 -89.505,-21.621 -89.505,-21.621l-26.176,31.882l0.059,-0.004l-26.176,-31.883s-44.86,0.934 -89.5,21.622c11.431,17.178 34.124,25.636 34.124,25.636c1.549,-15.136 12.202,-18.844 45.79,-18.868l35.762,199.548"/>
   <path id="svg_4" d="m139.336,15.36c36.09,-0.276 77.399,5.583 119.687,24.014c5.652,-10.173 7.105,-14.669 7.105,-14.669c-46.227,-18.289 -89.518,-24.548 -126.797,-24.705c-37.277,0.157 -80.566,6.417 -126.787,24.705c0,0 2.062,5.538 7.1,14.669c42.28,-18.431 83.596,-24.29 119.687,-24.014l0.005,0"/>
  </g>
 </g>
</svg>